<svg width="24" height="24" viewBox="0 0 24 24" fill="none" xmlns="http://www.w3.org/2000/svg">
  <path d="M19.9442 7.29c.0139.194.0139.388.0139.582 0 5.958-4.542 12.827-12.827 12.827v-.003A12.778 12.778 0 0 1 0 18.732a9.064 9.064 0 0 0 6.68-1.868 4.518 4.518 0 0 1-4.217-3.135 4.505 4.505 0 0 0 2.037-.077 4.515 4.515 0 0 1-3.62-4.424v-.057c.627.35 1.32.544 2.029.566a4.52 4.52 0 0 1-1.396-6.027 12.802 12.802 0 0 0 9.302 4.716 4.518 4.518 0 0 1 7.692-4.117c1.01-.199 1.98-.57 2.873-1.097a4.53 4.53 0 0 1-1.984 2.497A8.977 8.977 0 0 0 22 5.797a9.17 9.17 0 0 1-2.056 1.494Z" fill="currentColor"/>
</svg> 