<svg width="24" height="24" viewBox="0 0 24 24" fill="none" xmlns="http://www.w3.org/2000/svg">
  <path fill-rule="evenodd" clip-rule="evenodd" d="M19 5H5C4.44772 5 4 5.44772 4 6V18C4 18.5523 4.44772 19 5 19H19C19.5523 19 20 18.5523 20 18V6C20 5.44772 19.5523 5 19 5ZM5 3C3.34315 3 2 4.34315 2 6V18C2 19.6569 3.34315 21 5 21H19C20.6569 21 22 19.6569 22 18V6C22 4.34315 20.6569 3 19 3H5Z" fill="currentColor"/>
  <path d="M7 8H17M7 12H17M7 16H13" stroke="currentColor" stroke-width="2" stroke-linecap="round"/>
</svg> 