<svg width="24" height="24" viewBox="0 0 24 24" fill="none" xmlns="http://www.w3.org/2000/svg">
  <path fill-rule="evenodd" clip-rule="evenodd" d="M21.582 7.15452C21.352 6.12452 20.5199 5.31852 19.419 5.09052C17.4854 4.69052 12 4.69052 12 4.69052C12 4.69052 6.51414 4.69052 4.58135 5.09052C3.48045 5.31852 2.64795 6.12452 2.41734 7.15452C2 9.03952 2 12.0005 2 12.0005C2 12.0005 2 14.9615 2.41734 16.8455C2.64795 17.8755 3.48045 18.6815 4.58135 18.9095C6.51414 19.3095 12 19.3095 12 19.3095C12 19.3095 17.4854 19.3095 19.419 18.9095C20.5199 18.6815 21.352 17.8755 21.582 16.8455C22 14.9615 22 12.0005 22 12.0005C22 12.0005 22 9.03952 21.582 7.15452Z" fill="currentColor"/>
  <path d="M9.75 15.0215L15.5 11.7515L9.75 8.48151V15.0215Z" fill="white"/>
</svg> 