<?xml version="1.0" encoding="utf-8"?>
<!DOCTYPE svg PUBLIC "-//W3C//DTD SVG 1.0//EN" "http://www.w3.org/TR/2001/REC-SVG-20010904/DTD/svg10.dtd">
<svg version="1.0" xmlns="http://www.w3.org/2000/svg" width="288px" height="288px" viewBox="0 0 288 288" preserveAspectRatio="xMidYMid meet">
 <g fill="#fa531c">
  <path d="M0 144 l0 -144 144 0 144 0 0 144 0 144 -144 0 -144 0 0 -144z m157.75 90.95 c12.10 -1.20 23.25 -5.45 31.95 -12.20 9.50 -7.25 17.05 -19.20 20.30 -32 1.40 -5.40 2.50 -14.90 2.50 -21.15 0 -4.40 0.10 -5.20 0.85 -5.45 1.50 -0.60 4.20 -3.30 5.85 -5.90 2.80 -4.35 3.30 -6.60 3.30 -14.70 0 -6.50 -0.15 -7.60 -1.20 -10.20 -1.60 -3.80 -4 -6.90 -6.95 -8.85 -2.85 -1.90 -8.85 -4 -11.25 -4 l-1.75 0 0.35 -2.85 c0.15 -1.60 0.50 -4 0.75 -5.40 0.80 -4.05 0.65 -13.65 -0.20 -16.95 -2.20 -8.45 -10.10 -17.45 -20.85 -23.90 -10.20 -6.10 -20.20 -9.70 -31.90 -11.65 -10.05 -1.65 -35.60 -1.60 -37.25 0.10 -0.55 0.50 -0.75 1.85 -0.75 4.45 0 3.20 -0.10 3.70 -0.85 3.70 -0.50 0 -4.70 1 -9.40 2.20 -13.25 3.45 -14.95 3.90 -15.60 4.45 -0.45 0.30 -0.65 2.10 -0.65 5.60 l0 5.15 -1.45 0.60 c-2.05 0.85 -8 7.10 -10.65 11.25 -3.40 5.20 -4.65 8 -5.95 13 -1 3.85 -1.15 5.70 -1.15 12.75 0 6.90 0.20 9.05 1.20 13 0.60 2.60 1.25 5.75 1.35 7 0.20 2.20 0.20 2.25 -1.95 3.45 -3.25 1.80 -7.55 6.95 -9.10 10.85 -3.25 8.05 -2.85 21.20 0.80 28.40 2.40 4.75 8.55 9.65 14.70 11.75 l3.80 1.30 1.15 2.75 c2.85 6.85 10.50 16.85 16.10 21.10 9.25 7 24.20 12.05 38.40 12.90 6.85 0.40 18.20 0.15 25.50 -0.55z"/>
 </g>
 <g fill="#030303">
  <path d="M124.25 232.05 c-7.50 -1.60 -15.50 -4.10 -18.75 -5.90 -5.85 -3.30 -6.95 -3.95 -10.15 -6.40 -6.20 -4.80 -11.95 -12.40 -15.75 -20.85 -1.20 -2.70 -1.75 -3.40 -2.65 -3.40 -4.90 0 -13.80 -6.25 -16.55 -11.65 -2.20 -4.35 -2.85 -7.40 -2.90 -13.05 0 -6.70 1.10 -10.80 4.10 -15.30 2.25 -3.30 6.45 -7.05 9.35 -8.25 0.95 -0.45 1.55 -1 1.40 -1.35 -0.70 -1.85 -3.35 -12.05 -3.80 -14.60 -0.70 -3.80 -0.70 -12.10 0 -16.25 1.65 -10.45 10.80 -24 19.10 -28.30 1.55 -0.85 2.85 -1.75 2.85 -2.05 0 -0.25 -0.80 -1.30 -1.75 -2.20 -1.55 -1.50 -1.80 -2 -1.65 -3.75 l0.15 -2 4.50 -1.35 c3.80 -1.10 19.40 -4.95 23.15 -5.70 l1.15 -0.25 -1.05 -1.45 c-0.80 -1.10 -1 -2.05 -0.90 -3.85 l0.15 -2.40 2.50 -0.40 c1.40 -0.20 7 -0.40 12.50 -0.45 17.40 -0.05 30.70 2.55 42.35 8.40 12.10 6.05 20.80 13.05 25.30 20.45 2.75 4.50 3.60 8 3.60 14.60 -0.05 6.15 -0.55 9.20 -2.60 14.70 l-1.25 3.30 3.80 0.35 c8.75 0.75 14.90 4.70 18.20 11.75 2.90 6.10 2.30 16.10 -1.25 21.15 -1.75 2.55 -4.55 5.45 -5.65 5.90 -0.95 0.35 -1.10 1.10 -1.60 9.55 -0.35 5.05 -0.85 10.45 -1.15 11.95 -3.35 16.45 -9.90 28.25 -20.50 36.70 -3.55 2.85 -9.75 6.75 -12.80 8.05 -3.75 1.55 -11 3.65 -14.70 4.20 -2.05 0.30 -5.20 0.80 -7 1.05 -1.80 0.25 -7.75 0.45 -13.25 0.45 -8.85 -0.05 -10.75 -0.20 -16.50 -1.40z m26.75 -8.30 c8.75 -0.85 18.30 -3.85 25.20 -7.95 4.45 -2.65 11.70 -9.50 14.45 -13.70 6.30 -9.50 9.45 -19.60 10.20 -32.40 l0.30 -5.55 -2.85 -0.35 c-5.95 -0.75 -11.25 -3.30 -17.35 -8.30 -4.05 -3.30 -7.55 -7.45 -8.75 -10.35 -0.40 -0.90 -0.70 -3.20 -0.70 -5.15 l0 -3.50 -1.50 0 -1.50 0 0 3.55 c0 4.30 -1 6.65 -4.75 10.95 -5.50 6.35 -14 11.55 -20.60 12.60 -6.60 1 -13.10 -0.25 -16.95 -3.30 -3.45 -2.75 -6.70 -9.20 -6.70 -13.40 0 -1.05 -0.25 -1.90 -0.50 -1.90 -0.30 0 -2.80 0.35 -5.50 0.85 l-5 0.80 0 2.15 c0 4.85 -5.65 31.35 -7.05 33.05 -0.70 0.80 -3.50 0.85 -4.60 0.05 -0.45 -0.35 -2.65 -4.60 -4.85 -9.40 -8.85 -19.20 -9.25 -19.60 -15.35 -16.80 -5.50 2.60 -9.85 9.15 -9.80 14.85 0.10 7.60 7.40 15.25 15.60 16.25 3.05 0.40 3.50 0.90 6.10 7.20 2.95 7.05 8.65 14.30 15.45 19.60 4.70 3.65 13.95 7.55 22.50 9.40 2.80 0.65 16.35 1.45 19.50 1.20 0.95 -0.10 3.20 -0.30 5 -0.45z m62 -72.60 c0.80 -1.40 0.80 -1.40 -5.35 -12.10 -3.40 -5.90 -6.45 -10.90 -6.80 -11.15 -0.30 -0.20 -1.30 -0.40 -2.20 -0.40 l-1.60 0 4.30 7.40 c2.35 4.05 5.65 9.75 7.30 12.70 1.70 2.95 3.15 5.25 3.30 5.15 0.10 -0.15 0.60 -0.85 1.05 -1.60z m-54.35 -9.10 c-1.35 -2.50 -6.10 -10.60 -7 -12 -0.05 -0.10 -0.90 0 -1.90 0.15 -1.35 0.25 -1.70 0.50 -1.35 0.95 0.50 0.65 1.30 2 4.95 8.50 1.20 2.15 2.75 4.80 3.45 5.95 l1.30 2 1.20 -1.15 1.20 -1.10 -1.85 -3.30z m-43.20 -4.30 c2.30 -0.40 4.25 -0.80 4.30 -0.85 0.25 -0.30 2.25 -4.35 2.25 -4.55 0 -0.10 -1.20 -0.35 -2.65 -0.55 -1.50 -0.15 -4.85 -0.95 -7.50 -1.75 -2.70 -0.75 -4.85 -1.30 -4.85 -1.15 0 0.15 0.25 1.75 0.50 3.55 0.30 1.80 0.65 4.05 0.80 4.95 0.25 1.50 0.40 1.65 1.60 1.40 0.75 -0.20 3.25 -0.65 5.55 -1.05z m65.20 -12.55 c1.30 -0.45 2.35 -1 2.35 -1.25 0 -1.05 -12.05 -0.20 -18 1.25 -2.65 0.65 -2.50 0.70 5.30 0.75 6.15 0.05 8.55 -0.15 10.35 -0.75z"/>
  <path d="M153 207.75 c-7.70 -1.25 -9.70 -1.90 -10.20 -3.40 -0.30 -0.80 -0.30 -2.05 0 -3.20 0.45 -1.90 0.50 -1.90 3.15 -2.05 1.50 -0.10 5.20 0.35 8.25 0.95 6.70 1.35 13.35 1.45 17.30 0.20 3.90 -1.20 9.50 -1.55 10.05 -0.70 0.65 1.05 0.55 5.25 -0.15 5.80 -0.35 0.30 -2.10 1.05 -3.90 1.70 -2.85 1 -4.35 1.15 -11.75 1.25 -5.45 0.10 -10.05 -0.10 -12.75 -0.55z"/>
  <path d="M165.10 189.45 l-1.65 -0.50 0.15 -3.10 0.15 -3.10 4.50 -0.10 c2.50 -0.05 4.90 -0.10 5.35 -0.10 2.55 -0.15 1.30 -5.20 -3.60 -14.80 -2.75 -5.35 -3.50 -7.30 -3.50 -9 0 -2.75 0.75 -3.35 4.10 -3.15 l2.65 0.15 3.80 7.55 c4.20 8.35 5.45 12.40 5.45 17.60 0 4.50 -0.65 6.20 -2.95 7.80 -1.75 1.20 -2.20 1.30 -7.35 1.25 -3 0 -6.20 -0.25 -7.10 -0.50z"/>
  <path d="M77.60 178.45 c-1.25 -1.30 -3.35 -9 -3.35 -12.25 0 -3.60 0.65 -4.20 4.55 -4.20 3.90 0 4.20 0.35 6 7.30 1.40 5.40 1.35 8.50 -0.10 9.55 -0.50 0.35 -2.10 0.65 -3.55 0.65 -2 0 -2.85 -0.25 -3.55 -1.05z"/>
 </g>
 <g fill="#ffffff">
  <path d="M130 237 c-13.75 -0.95 -28.65 -6.10 -37.65 -12.90 -5.60 -4.25 -13.25 -14.25 -16.10 -21.10 l-1.15 -2.75 -3.80 -1.30 c-4.40 -1.50 -8.30 -4 -11.45 -7.40 -4.20 -4.45 -5.75 -9.05 -6.20 -17.80 -0.55 -11.75 1.25 -18.80 6.30 -24.45 1.55 -1.75 3.75 -3.70 4.95 -4.35 1.70 -0.95 2.10 -1.40 1.85 -2.20 -2.05 -7 -2.45 -10.25 -2.45 -19.75 0 -8.65 0.10 -10.25 1.15 -14.25 1.30 -5 2.60 -7.80 5.95 -13 2.65 -4.15 8.60 -10.40 10.65 -11.25 l1.45 -0.60 0 -5.15 c0 -3.50 0.20 -5.30 0.60 -5.60 0.70 -0.55 2.40 -1 15.65 -4.45 4.70 -1.20 8.90 -2.20 9.40 -2.20 0.75 0 0.85 -0.50 0.85 -3.70 0 -2.60 0.20 -3.95 0.75 -4.45 1.65 -1.70 30.35 -1.75 40.25 -0.10 11.80 1.95 21.70 5.60 31.90 11.65 10.75 6.45 18.65 15.45 20.85 23.90 1.25 4.80 0.95 17.95 -0.50 23.85 -0.35 1.30 -0.25 1.35 1.35 1.35 2.40 0 8.40 2.10 11.25 4 2.95 1.95 5.35 5.05 6.95 8.85 1.10 2.65 1.20 3.60 1.20 11.70 0 9.75 -0.40 11.70 -3.30 16.20 -1.65 2.60 -4.35 5.30 -5.85 5.90 -0.75 0.25 -0.85 1.05 -0.85 5.45 0 9.45 -1.90 21.10 -4.60 27.90 -8.65 21.95 -25.95 34.90 -50.15 37.45 -6.65 0.70 -22.70 1 -29.25 0.55z m22.50 -5.50 c1.80 -0.25 4.95 -0.75 7 -1.05 3.70 -0.55 10.95 -2.65 14.70 -4.20 2.60 -1.10 9.05 -5 11.80 -7.20 5.05 -3.95 9.35 -8.70 12.85 -14.30 3.70 -5.80 7 -14.70 8.60 -23.25 0.70 -3.60 1.65 -15.95 1.45 -18.65 -0.15 -1.70 0.05 -2.15 1 -2.65 3.25 -1.60 6.75 -6.40 8.20 -11.15 1.95 -6.40 0.15 -13.65 -4.65 -18.55 -3.75 -3.80 -8.20 -5.75 -14.55 -6.30 -4.55 -0.40 -5.45 -1.05 -4.15 -3 2.30 -3.50 4.20 -11.15 4.25 -16.85 0 -8.95 -4.10 -16.35 -13.20 -23.65 -15.55 -12.50 -33.75 -18.40 -56.55 -18.25 -9.95 0.05 -13.40 0.45 -13.65 1.60 -0.10 0.45 0.55 1.90 1.35 3.25 0.85 1.30 1.55 2.65 1.55 3 0 0.35 -0.95 0.75 -2.10 0.95 -5.95 0.90 -26.70 6.40 -27.60 7.25 -0.25 0.25 0.65 1.70 2.15 3.30 1.40 1.60 2.55 3.25 2.50 3.65 0 0.50 -1.45 1.50 -3.55 2.50 -8.75 4.15 -18.10 17.60 -19.85 28.60 -1.20 7.20 -0.65 12.05 2.50 23.30 1.10 3.95 1.85 7.40 1.65 7.70 -0.15 0.30 -1.05 0.85 -1.90 1.25 -2.80 1.20 -7 4.95 -9.20 8.20 -5.05 7.50 -5.45 16.95 -1.20 25.35 2.75 5.40 11.65 11.65 16.55 11.65 0.90 0 1.45 0.70 2.65 3.40 3.80 8.45 9.55 16.05 15.75 20.85 3.20 2.45 4.30 3.10 10.15 6.40 3.25 1.80 11.25 4.30 18.75 5.90 5.50 1.15 7.80 1.35 15 1.40 4.70 0 9.95 -0.20 11.75 -0.45z"/>
  <path d="M135.25 225.50 c-4.10 -0.20 -8.75 -0.65 -10.25 -1 -8.55 -1.85 -17.80 -5.75 -22.50 -9.40 -6.80 -5.30 -12.50 -12.55 -15.45 -19.60 -2.60 -6.30 -3.05 -6.80 -6.10 -7.20 -6 -0.75 -11.70 -5.05 -14.35 -10.80 -1.05 -2.25 -1.30 -3.50 -1.30 -7 -0.05 -3.75 0.15 -4.65 1.55 -7.60 1.85 -4 4.85 -7.05 8.30 -8.70 5.30 -2.45 8.70 -2 10.75 1.40 1.35 2.25 4.30 8.20 8.35 17.05 3.40 7.35 4.60 9 5.70 7.65 1.40 -1.65 7.05 -28.20 7.05 -33 l0 -2.10 6.40 -1.10 c3.50 -0.60 6.65 -1.10 7 -1.10 0.40 0 0.60 0.75 0.60 2.15 0 2.95 1.10 6.20 3.15 9.45 2.90 4.50 5.70 6.40 11.20 7.50 7.80 1.60 19.30 -3.80 26.90 -12.60 3.90 -4.50 4.85 -6.80 4.65 -11 l-0.15 -3.50 3.25 0 3.25 0 -0.15 3.10 c-0.10 1.70 0.05 3.90 0.35 4.85 0.85 2.80 4.90 7.75 9.15 11.20 6.05 4.90 11.30 7.40 17.20 8.15 l2.85 0.35 -0.30 7.05 c-0.35 8.30 -1.20 13.55 -3.30 19.75 -3.10 9.15 -7.10 15.60 -13.50 21.65 -9.15 8.60 -19.70 12.90 -35.40 14.40 -3 0.25 -5.85 0.45 -6.40 0.40 -0.55 -0.05 -4.35 -0.25 -8.50 -0.40z m40.75 -19.95 c4.05 -1.45 4.75 -2.05 4.30 -3.80 -0.30 -1.20 -0.50 -1.35 -2.20 -1.10 -1 0.10 -3.30 0.65 -5.10 1.15 -4.55 1.30 -13.50 1.20 -20.35 -0.20 -6.50 -1.40 -7.55 -1.40 -8.10 0.05 -0.75 1.90 0.15 2.65 4.30 3.55 6.90 1.45 9.75 1.75 16.90 1.60 5.80 -0.10 7.55 -0.35 10.25 -1.25z m2.05 -18.35 c4.65 -3.20 3.90 -9.60 -2.50 -22.40 -3.60 -7.10 -3.90 -7.55 -5.25 -7.55 -2.95 0 -2.80 1.10 1.30 9.35 4.15 8.25 4.90 10.40 4.90 13.90 0 3.60 -0.25 3.75 -6.10 3.75 l-5.15 0 -0.15 1.60 c-0.15 1.45 0 1.65 1.50 2.10 0.90 0.25 3.45 0.50 5.60 0.50 3.50 0.05 4.20 -0.10 5.85 -1.25z m-94.80 -9.90 c1.15 -0.85 1.10 -2.70 -0.25 -7.65 -1.40 -5.15 -2.10 -6.15 -4.20 -6.15 -2 0 -2.95 1 -2.90 2.95 0.05 2.45 2.20 9.45 3.20 10.55 1.10 1.15 2.80 1.30 4.15 0.30z"/>
  <path d="M210.30 154.50 c-0.75 -1.25 -3.25 -5.60 -5.65 -9.75 -2.35 -4.10 -5.75 -9.90 -7.50 -12.85 -1.70 -2.95 -3.15 -5.50 -3.15 -5.65 0 -0.15 1.80 -0.25 3.95 -0.25 2.85 0 4.20 0.20 4.70 0.75 0.45 0.40 3.60 5.75 7.10 11.85 l6.35 11.10 -1.15 2.15 c-0.65 1.20 -1.70 2.80 -2.25 3.55 l-1.10 1.35 -1.30 -2.25z"/>
  <path d="M155.45 147.40 c-1.15 -2 -2.95 -5.10 -3.95 -6.90 -1.95 -3.50 -3.20 -5.65 -5 -8.65 -0.65 -1.10 -0.95 -2.10 -0.70 -2.30 0.25 -0.25 1.85 -0.75 3.60 -1.20 3.10 -0.75 3.15 -0.75 3.80 0.35 5.60 9.15 9.30 15.85 9.30 16.75 0 0.45 -1.10 1.90 -2.40 3.25 l-2.45 2.35 -2.20 -3.65z"/>
  <path d="M106.95 139.65 c-0.25 -0.65 -0.45 -1.80 -0.45 -2.55 0 -0.75 -0.45 -3.50 -0.95 -6.10 -0.55 -2.60 -0.90 -4.80 -0.80 -4.90 0.10 -0.10 1.55 0.30 3.30 0.90 5.65 1.85 12.50 3.50 14.65 3.50 2.70 0 3 0.30 1.85 1.95 -0.50 0.70 -1.45 2.30 -2.05 3.55 -0.60 1.25 -1.15 2.30 -1.25 2.40 -0.05 0.10 -7.85 1.50 -12.65 2.30 -0.90 0.15 -1.30 -0.15 -1.65 -1.05z"/>
  <path d="M166.50 131.65 c0 -0.65 -0.25 -1.15 -0.60 -1.15 -0.30 0 -0.40 -0.15 -0.20 -0.35 0.20 -0.25 2.40 -0.45 4.85 -0.50 l4.45 -0.10 -0.30 1.35 c-0.20 0.75 -0.35 1.40 -0.40 1.40 -0.05 0.05 -1.80 0.20 -3.90 0.30 -3.80 0.15 -3.90 0.15 -3.90 -0.95z"/>
  <path d="M158.65 126.90 c-0.90 -0.30 -1.65 -0.70 -1.65 -0.90 0 -0.45 6.10 -2.35 9.75 -3 1.65 -0.30 6.25 -0.70 10.25 -0.85 6.90 -0.25 7.30 -0.20 8.65 0.85 0.75 0.60 1.35 1.25 1.35 1.50 0 0.20 -1.60 0.95 -3.55 1.70 -3.35 1.25 -3.90 1.30 -13.35 1.25 -5.40 -0.05 -10.60 -0.30 -11.45 -0.55z"/>
 </g>
</svg>